<svg id="Capa_1" enable-background="new 0 0 512 512" height="512" viewBox="0 0 512 512" width="512" xmlns="http://www.w3.org/2000/svg"><path d="m10 370h492v132h-492z" fill="#a0e5a5"/><path d="m256 10c-115.98 0-210 94.02-210 210 0 58.76 24.13 111.88 63.03 150h293.94c38.9-38.12 63.03-91.24 63.03-150 0-115.98-94.02-210-210-210z" fill="#fff2a0"/><path d="m376 190h-2.75c-4.59-12.89-14.84-23.05-27.75-27.5.07-.87.5-1.61.5-2.5 0-16.57-13.43-30-30-30-2.66 0-5.04.86-7.5 1.51-10.16-18.68-29.73-31.51-52.5-31.51s-42.33 12.83-52.5 31.51c-2.46-.65-4.84-1.51-7.5-1.51-16.57 0-30 13.43-30 30 0 .89.43 1.63.51 2.5-12.92 4.45-23.17 14.61-27.76 27.5h-2.75c-16.57 0-30 13.43-30 30s13.43 30 30 30h30c0 16.57 13.43 30 30 30h120c16.57 0 30-13.43 30-30h30c16.57 0 30-13.43 30-30s-13.43-30-30-30z" fill="#a0e5a5"/><path d="m286 436h-60c0-9.998 0-151.922 0-156h60z" fill="#c68a65"/><circle cx="256" cy="502" r="10"/><path d="m502 360h-76.271c32.564-39.307 50.271-88.216 50.271-140 0-121.588-98.396-220-220-220-121.588 0-220 98.396-220 220 0 51.784 17.707 100.693 50.271 140h-76.271c-5.523 0-10 4.477-10 10v132c0 5.523 4.477 10 10 10h201c5.523 0 10-4.477 10-10s-4.477-10-10-10h-191v-112h196v46h-50c-5.523 0-10 4.477-10 10s4.477 10 10 10h180c5.523 0 10-4.477 10-10s-4.477-10-10-10h-50v-46h196v112h-191c-5.523 0-10 4.477-10 10s4.477 10 10 10h201c5.523 0 10-4.477 10-10v-132c0-5.523-4.477-10-10-10zm-366-120c-11.028 0-20-8.972-20-20s8.972-20 20-20h2.75c4.229 0 8.002-2.661 9.42-6.646 3.548-9.964 11.622-17.964 21.596-21.399 4.655-1.604 7.96-6.471 6.252-12.819.454-10.629 9.243-19.136 19.982-19.136 1.01 0 2.901.638 4.946 1.178 4.455 1.177 9.134-.841 11.337-4.887 8.829-16.217 25.58-26.291 43.717-26.291 18.145 0 34.896 10.073 43.715 26.288 2.202 4.047 6.882 6.066 11.339 4.89 2.05-.542 3.936-1.178 4.946-1.178 10.742 0 19.533 8.513 19.982 19.146-.167.63-.366 1.511-.45 2.554-.365 4.548 2.395 8.767 6.709 10.254 9.97 3.437 18.041 11.437 21.588 21.4 1.418 3.984 5.191 6.646 9.42 6.646h2.751c11.028 0 20 8.972 20 20s-8.972 20-20 20h-21.266c-4.452-17.233-20.13-30-38.734-30h-2.552c-13.012-18.641-34.517-30-57.448-30s-44.436 11.359-57.448 30h-2.552c-18.604 0-34.282 12.767-38.734 30zm60-10h8.03c3.57 0 6.869-1.903 8.656-4.994 8.921-15.424 25.518-25.006 43.314-25.006s34.393 9.582 43.314 25.006c1.787 3.09 5.086 4.994 8.656 4.994h8.03c11.028 0 20 8.972 20 20s-8.972 20-20 20h-120c-11.028 0-20-8.972-20-20s8.972-20 20-20zm40 196v-136h40v136zm60-136h20c18.604 0 34.282-12.767 38.734-30h21.266c22.056 0 40-17.944 40-40 0-20.738-15.865-37.841-36.095-39.811-5.279-10.452-13.686-18.875-24.101-24.16-1.999-20.199-19.087-36.029-39.804-36.029-.966 0-1.886.062-2.76.166-13.02-18.778-34.323-30.166-57.24-30.166-22.908 0-44.21 11.388-57.237 30.166-.875-.104-1.796-.166-2.763-.166-20.718 0-37.808 15.831-39.805 36.033-10.416 5.284-18.822 13.706-24.1 24.156-20.23 1.97-36.095 19.073-36.095 39.811 0 22.056 17.944 40 40 40h21.266c4.452 17.233 20.13 30 38.734 30h20v70h-102.817c-36.902-37.607-57.183-87.158-57.183-140 0-110.28 89.72-200 200-200s200 89.72 200 200c0 52.842-20.281 102.393-57.183 140h-102.817z"/></svg>